<svg version="1.1" xmlns="http://www.w3.org/2000/svg" xmlns:xlink="http://www.w3.org/1999/xlink" width="93.21379" height="104.96068" viewBox="0,0,93.21379,104.96068"><g transform="translate(-206.62905,-114.91481)"><g data-paper-data="{&quot;isPaintingLayer&quot;:true}" fill-rule="nonzero" stroke="#ffffff" stroke-width="2" stroke-linejoin="miter" stroke-dasharray="" stroke-dashoffset="0" style="mix-blend-mode: normal"><path d="M246.40918,201.20534c-0.71941,-1.02494 -0.56173,-2.40281 0.3169,-3.24213l0.0108,-0.0365l0.06656,-0.03435c0.06801,-0.05972 0.13993,-0.11635 0.21571,-0.16954c0.28505,-0.20008 0.5974,-0.33232 0.91787,-0.40007l0.59939,-0.14129l0.48289,-0.33894l0.44194,-0.1699l0.42074,-0.21716l0.74879,-0.17651l0.18258,0.00246l0.71898,-0.50466l-0.07626,-0.51024l-0.15857,-0.36029l-0.05637,-0.32913l-0.12798,-0.30842l-0.09443,-0.63186l0.01524,-0.15724l-0.04198,-0.1523l-0.02472,-1.02986l0.09278,-0.41299l0.02974,-0.42224l0.1364,-0.41817l0.10059,-1.03778l0.03284,-0.09236l-0.00701,-0.09777l0.27885,-1.59201l0.07311,-0.16442l0.01264,-0.1795l0.35244,-1.08053l0.05704,-0.68783l-0.03388,-1.41128l0.02045,-0.09103l-0.01816,-0.09151l0.07984,-1.62686l0.06984,-0.23064l-0.00121,-0.24098l0.28204,-1.15271l-0.0044,-0.18314l0.10759,-0.47891l0.06159,-0.48697l0.17007,-0.43746l0.09005,-0.35242l0.04781,-0.49325l0.09796,-0.07721l0.05053,-0.19776l0.45535,-0.84322l0.18567,-0.20329l0.1244,-0.24561l0.27455,-0.31697l0.32776,-0.50214l0.05513,-0.05111l0.02872,-0.06947l0.18638,-0.25188l0.0376,-0.21468l0.2044,-0.45973l0.16461,-0.47543l0.14673,-0.2248l0.00773,-0.01738l0.00473,-0.0017l0.26131,-0.40033l0.34723,-0.32188l0.16997,-0.19623l0.09805,-0.22054l0.00875,-0.0112l-0.00423,-0.04545l0.40653,-0.46934l0.38234,-0.48925l0.04541,-0.00459l0.0093,-0.01074l0.25741,-0.18068l0.00568,-0.01461l0.0581,-0.08211l-0.00785,-0.08434l0.3687,-0.42566l0.32526,-0.45971l0.08377,-0.01252l0.06586,-0.07603l0.33545,-0.23545l0.02314,-0.04286l0.38738,-0.42415l0.37609,-0.4342l0.05702,-0.04002l0.04842,-0.05302l0.02807,-0.00067l2.90662,-2.04018l0.23242,-0.08935l0.19677,-0.15259l0.66671,-0.29344l0.32913,-0.05637l0.30842,-0.12798l0.3641,-0.05442l1.27087,-0.89203l0.32548,-0.12513l0.29193,-0.19071l0.98264,-0.34065l0.23314,-0.02074l0.21619,-0.08971l0.45614,-0.06817l0.60348,-0.18025l0.46017,-0.17691l0.0973,-0.01193l0.08432,-0.05l0.43286,-0.12929l0.10597,-0.0048l0.09543,-0.04634l0.56254,-0.1182l0.28156,-0.19763l0.37511,-0.14421l0.34567,-0.20497l0.43286,-0.12929l0.10597,-0.0048l0.09543,-0.04634l0.56254,-0.1182l0.04771,-0.03348l0.28727,-0.11044l0.2519,-0.17681l0.54979,-0.21136l0.20092,-0.02464l0.18209,-0.08843l0.56254,-0.1182l0.39849,-0.2797l0.37511,-0.14421l0.34567,-0.20497l0.77372,-0.2311l0.1729,-0.06647l0.80045,-0.56184l0.09389,-0.03609l0.04025,-0.07453l0.54289,-0.14965l0.52563,-0.20208l0.07665,0.03605l0.09697,-0.02673l0.12479,-0.003l0.54347,-0.1884l1.14763,-0.47622l0.07307,-0.01092c0.05184,-0.02295 0.10395,-0.04547 0.15633,-0.06753l0.0133,-0.00788l0.01922,-0.00574c0.18577,-0.07742 0.37498,-0.14912 0.56818,-0.21422l0.02525,-0.01772l0.44194,-0.1699l0.42074,-0.21716l0.65457,-0.1543l2.45409,-1.72254l0.01018,-0.02617l0.06632,-0.02752l0.05702,-0.04002l0.53617,-0.20613l0.53057,-0.22016l0.04817,-0.0072l2.08937,-1.46654l1.20266,-0.46236l0.04343,0.02043l0.11167,-0.04293l0.34567,-0.20497l0.43286,-0.12929l0.4927,-0.02232l0.16232,-0.10098l0.31123,0.07952l0.3209,-0.01454l0.13838,0.13189l0.13328,0.03406l0.26707,0.04678l0.36721,0.16327l0.04479,0.01145l0.17919,0.03139l0.00447,-0.00229l0.01797,0.00622l0.26443,0.04632l0.45973,0.2044l0.47543,0.16461l0.2248,0.14673l0.01738,0.00773l0.0017,0.00473l0.31325,0.20447l0.05262,0.02842l0.33501,0.13024l0.27259,0.19287l0.30858,0.12759l0.72629,0.53742l0.25543,0.31026l0.30377,0.26312l0.39872,0.56806l0.02617,0.01018l0.02752,0.06632l0.04002,0.05702l0.20613,0.53617l0.22016,0.53057l0.0103,0.06889l0.02577,0.06702l-0.01195,0.02541l0.01823,0.12195l0.02412,0.02978l-0.08115,0.64162l-0.06239,0.64372l-0.0301,0.02372l-0.03625,0.09325l-0.01625,0.0928l-0.05682,0.58624l-0.05321,0.04194l-0.01065,0.06082l-0.21339,0.47993l-0.05147,0.29385l-0.16327,0.36721l-0.09949,0.38937l-0.45535,0.84322l-0.12135,0.13287l-0.06875,0.16629l-0.10548,0.14254l-0.22693,0.51039l-0.00875,0.0112l0.00423,0.04545l-0.40653,0.46934l-0.38234,0.48925l-0.04541,0.00459l-0.0093,0.01074l-0.32229,0.22622l-0.6069,0.56982l-0.03502,0.01954l-0.02275,0.03302l-0.97028,0.85558l-0.12502,0.06472l-0.09217,0.10641l-5.47905,3.84577l-0.01018,0.02617l-0.06632,0.02752l-0.05702,0.04002l-0.53617,0.20613l-0.53057,0.22016l-0.06889,0.0103l-0.06702,0.02577l-0.02541,-0.01195l-0.08292,0.01239l-1.16156,0.57456l-0.31123,0.21845l-0.37511,0.14421l-0.34567,0.20497l-0.86572,0.25858l-0.29745,0.01348l-0.28459,0.08753l-0.91735,0.04904l-0.82021,0.34035l-0.1298,0.0194l-0.11289,0.06694l-0.90985,0.27176l-0.36951,0.25936l-0.44194,0.1699l-0.42074,0.21716l-1.14244,0.2693l-1.05189,0.60415l-0.27962,0.07931l-0.25,0.14824l-0.90985,0.27176l-0.48644,0.34143l-0.28727,0.11044l-0.2519,0.17681l-1.09957,0.42272l-0.0973,0.01193l-0.08432,0.05l-1.12834,0.33702l-1.08432,0.50012l-0.49256,0.34573l0.00644,0.0244l-0.14664,0.23989l-0.06163,0.27432l-0.16809,0.10148l-0.29565,0.48366l-0.3515,0.34575l-0.19922,0.36892l0.0026,0.02796l-0.04701,0.05427l-0.0331,0.06129l-0.38738,0.42415l-0.37609,0.4342l-0.05702,0.04002l-0.04842,0.05302l-0.02807,0.00067l-0.0823,0.05776l-0.00447,0.00516l-0.17317,0.32068l-0.07154,0.07833l-0.03471,0.10025l-0.4205,0.64422l-0.05513,0.05111l-0.02872,0.06947l-0.49373,0.66724l-0.28546,0.43735l-0.40501,0.86109l-0.32762,0.73685l-0.16953,0.21693l-0.1052,0.25443l-0.80614,1.08944l-0.15309,0.12604l-0.10342,0.16919l-0.2811,0.2765l-0.14558,0.32742l-0.1413,0.18081l-0.07977,0.21516l-0.68921,1.00737l-0.18275,0.16217l-0.12743,0.20846l-0.04834,0.04755l-0.0012,0.00686l-0.18577,0.41782l-0.1332,0.43742l-0.72406,1.20637l-0.11386,0.11383l-0.066,0.14685l-0.89963,1.14177l-0.18433,0.24911l-0.51758,0.83686l-0.23641,0.23012l-0.17857,0.27742l-0.66643,0.62572l-0.82346,0.90162l-0.01847,0.01225l0.42624,0.44431l0.09603,0.16784l0.14616,0.1266l0.24622,0.35079l0.46236,1.20266l-1.07233,2.27986l-2.5086,0.23361l-0.97392,-0.84359l-0.13638,-0.1943l-0.78431,-0.81755l-0.96982,0.68072l-0.09389,0.03609l-0.04025,0.07453l-0.54289,0.14965l-0.52563,0.20208l-0.07665,-0.03605l-0.09697,0.02673l-0.2547,0.00611l-0.02681,0.00632l-0.40784,0.28627l-0.01018,0.02617l-0.06632,0.02752l-0.05702,0.04002l-0.53617,0.20613l-0.53057,0.22016l-0.06889,0.0103l-0.06702,0.02577l-0.02541,-0.01195l-0.05176,0.00774l-0.59089,0.13929c-0.4198,0.10927 -0.85763,0.10571 -1.26948,-0.00299l-0.07556,-0.00102l-0.02627,-0.02817c-0.51049,-0.15803 -0.97444,-0.48026 -1.30521,-0.9515zM256.46714,191.51273l0.07602,-0.07399l0.04053,-0.09803l0.26871,-0.36315l0.03002,-0.02472l0.01594,-0.03547l0.82486,-1.04688l0.14292,-0.23812l-1.35523,-0.28575l-0.21676,1.23756l-0.1178,1.21537l-0.09223,0.25941l-0.00581,0.08243z" data-paper-data="{&quot;index&quot;:null}" fill="#000000" stroke-linecap="butt" stroke-miterlimit="10"/><path d="M234.50435,136.44414l-8.95068,1.09897l-1.89948,-18.44674z" data-paper-data="{&quot;index&quot;:null}" fill="#000000" stroke-linecap="butt" stroke-miterlimit="10"/><path d="M247.23717,119.42971l-2.31615,18.11341l-8.95068,-1.09897z" fill="#000000" stroke-linecap="butt" stroke-miterlimit="10"/><path d="M247.36495,142.03072c0.13169,2.50208 -0.56226,4.85028 -1.84068,6.80637c5.6478,2.86015 9.69611,8.53904 10.05271,15.31433c0.30037,5.70699 -2.07446,10.93457 -6.03103,14.49756c8.59082,2.53611 21.65313,14.50645 22.82501,36.77215l-64.6605,3.40318c-1.17188,-22.2657 10.56171,-35.54109 18.83884,-38.96498c-4.30873,-3.12797 -7.21919,-8.07738 -7.51955,-13.78437c-0.35659,-6.77529 3.07322,-12.84776 8.38959,-16.28498c-1.47669,-1.81109 -2.4133,-4.07346 -2.54499,-6.57555c-0.327,-6.21303 4.44042,-11.51016 10.65345,-11.83716c6.21303,-0.327 11.51016,4.44042 11.83716,10.65345z" fill="#000000" stroke-linecap="round" stroke-miterlimit="4"/><path d="M230.71622,139.66216l0.18919,2.54054" fill="none" stroke-linecap="round" stroke-miterlimit="10"/><path d="M236.68919,140.7973c0,0 1.03386,-0.78604 1.81081,-0.83784c0.77695,-0.0518 2.64865,0.54054 2.64865,0.54054" fill="none" stroke-linecap="round" stroke-miterlimit="10"/><path d="M231.06757,148.25676c0,0 1.90581,1.14816 3.16216,0.89189c1.25635,-0.25627 2.27027,-2 2.27027,-2c0,0 1.59312,1.6994 2.72973,1.35135c1.13661,-0.34805 2.91892,-3.08108 2.91892,-3.08108" fill="none" stroke-linecap="round" stroke-miterlimit="10"/><path d="M236.31081,146.47297l-1.37838,-1.43243l1.78378,-0.62162l-0.43243,1.89189" fill="none" stroke-linecap="round" stroke-miterlimit="10"/></g></g></svg>